# xmcd
#
# Track frame offsets:
#	150
#	11356
#	26565
#	42692
#	61411
#	80078
#	95842
#	111806
#	123955
#	136078
#	149554
#	169715
#	185507
#	194987
#	205921
#	226936
#
# Disc length: 3031 seconds
#
# Revision: 1
# Processed by: cddbd v1.5.2PL0 Copyright (c) Steve Scherf et al.
# Submitted via: audiograbber 1.83.01
#
DISCID=eb0bd510
DTITLE=Various Artist - AK-46-1
DYEAR=1900
DGENRE=Karaoke
TTITLE0=Merle Haggard - Okie From Muskogee
TTITLE1=Rosanne Cash - Seven Year Ache
TTITLE2=Tammy Wynette - DIVORCE
TTITLE3=Tammy Wynette - Stand By Your Man
TTITLE4=Tammy Wynette - Your Good Girls Gonna Go Bad
TTITLE5=Tanya Tucker - A memory LIke I'm Gonna Be
TTITLE6=Tanya Tucker - I'll Come Back As Another Woman
TTITLE7=Tanya Tucker - Old Weakness
TTITLE8=Tanya Tucker - Texas When I Die
TTITLE9=Waylon Jennings - Good Hearted Woman
TTITLE10=Waylon Jennings - I've Always Been Crazy
TTITLE11=Waylon Jennings and Willie Nelson - Mama's Don't Let Your Babies Grow Up
TTITLE11=To Be Cowboys
TTITLE12=Willie Nelson - Always On My Mind
TTITLE13=Willie Nelson - On The Road Again
TTITLE14=Willie Nelson - Seven Spanish Angels
TTITLE15=Data Track - Data Track
EXTD=
EXTT0=
EXTT1=
EXTT2=
EXTT3=
EXTT4=
EXTT5=
EXTT6=
EXTT7=
EXTT8=
EXTT9=
EXTT10=
EXTT11=
EXTT12=
EXTT13=
EXTT14=
EXTT15=
PLAYORDER=
